# xmcd
#
# Track frame offsets: 
#        150
#        11362
#        21670
#        30732
#        43232
#        62990
#        74600
#        84962
#        95397
#        106370
#        117420
#        131157
#        141592
#        153847
#
# Disc length: 2283 seconds
#
# Revision: 2
# Processed by: cddbd v1.4PL0 Copyright (c) Steve Scherf et al.
# Submitted via: ExactAudioCopy v0.90b4
#
DISCID=c908e90e
DTITLE=Eric Clapton - Guitar Greats
DYEAR=1900
DGENRE=Rock
TTITLE0=Snake Drive
TTITLE1=Putty In Your Hands
TTITLE2=I Ain't Got You
TTITLE3=Good Morning Little Schoolgirl
TTITLE4=Wang Dang Doodle
TTITLE5=Got To Hurry
TTITLE6=Honey In Your Hips
TTITLE7=I Wish You Would
TTITLE8=Boom Boom
TTITLE9=For Your Love
TTITLE10=Out On The Water Coast
TTITLE11=A Certain Girl
TTITLE12=Highway 49
TTITLE13=Little Red Rooster
EXTD=
EXTT0=
EXTT1=
EXTT2=
EXTT3=
EXTT4=
EXTT5=
EXTT6=
EXTT7=
EXTT8=
EXTT9=
EXTT10=
EXTT11=
EXTT12=
EXTT13=
PLAYORDER=
